<mxfile host="app.diagrams.net" modified="2024-05-01T20:09:06.163Z" agent="Mozilla/5.0 (Macintosh; Intel Mac OS X 10_15_7) AppleWebKit/537.36 (KHTML, like Gecko) Chrome/124.0.0.0 Safari/537.36" etag="R6n9InqIapOirGH6rkVs" version="24.2.2" type="device">
  <diagram name="Страница 1" id="-c8OzcKBzWImHpJG0BAa">
    <mxGraphModel dx="829" dy="458" grid="1" gridSize="10" guides="1" tooltips="1" connect="1" arrows="1" fold="1" page="1" pageScale="1" pageWidth="827" pageHeight="1169" math="0" shadow="0">
      <root>
        <mxCell id="0" />
        <mxCell id="1" parent="0" />
        <mxCell id="nVltp_dW7A7kv0RR8O9B-27" value="" style="rounded=0;whiteSpace=wrap;html=1;fillColor=none;dashed=1;dashPattern=8 8;" vertex="1" parent="1">
          <mxGeometry x="2090" y="572.5" width="350" height="160" as="geometry" />
        </mxCell>
        <mxCell id="X9N_k1nun9EKNNsWqRUu-1" value="Metric storage" style="strokeWidth=2;html=1;shape=mxgraph.flowchart.database;whiteSpace=wrap;sketch=1;hachureGap=4;jiggle=2;curveFitting=1;fontFamily=Architects Daughter;fontSource=https%3A%2F%2Ffonts.googleapis.com%2Fcss%3Ffamily%3DArchitects%2BDaughter;fontSize=20;fillColor=#dae8fc;strokeColor=#6c8ebf;" parent="1" vertex="1">
          <mxGeometry x="145" y="320" width="90" height="90" as="geometry" />
        </mxCell>
        <mxCell id="X9N_k1nun9EKNNsWqRUu-2" value="Service" style="rounded=1;whiteSpace=wrap;html=1;absoluteArcSize=1;arcSize=14;strokeWidth=2;sketch=1;hachureGap=4;jiggle=2;curveFitting=1;fontFamily=Architects Daughter;fontSource=https%3A%2F%2Ffonts.googleapis.com%2Fcss%3Ffamily%3DArchitects%2BDaughter;fontSize=20;fillColor=#fff2cc;strokeColor=#d6b656;" parent="1" vertex="1">
          <mxGeometry x="10" y="60" width="100" height="73" as="geometry" />
        </mxCell>
        <mxCell id="X9N_k1nun9EKNNsWqRUu-3" value="Service" style="rounded=1;whiteSpace=wrap;html=1;absoluteArcSize=1;arcSize=14;strokeWidth=2;sketch=1;hachureGap=4;jiggle=2;curveFitting=1;fontFamily=Architects Daughter;fontSource=https%3A%2F%2Ffonts.googleapis.com%2Fcss%3Ffamily%3DArchitects%2BDaughter;fontSize=20;fillColor=#fff2cc;strokeColor=#d6b656;" parent="1" vertex="1">
          <mxGeometry x="140" y="60" width="100" height="73" as="geometry" />
        </mxCell>
        <mxCell id="X9N_k1nun9EKNNsWqRUu-4" value="Service" style="rounded=1;whiteSpace=wrap;html=1;absoluteArcSize=1;arcSize=14;strokeWidth=2;sketch=1;hachureGap=4;jiggle=2;curveFitting=1;fontFamily=Architects Daughter;fontSource=https%3A%2F%2Ffonts.googleapis.com%2Fcss%3Ffamily%3DArchitects%2BDaughter;fontSize=20;fillColor=#fff2cc;strokeColor=#d6b656;" parent="1" vertex="1">
          <mxGeometry x="260" y="60" width="100" height="73" as="geometry" />
        </mxCell>
        <mxCell id="X9N_k1nun9EKNNsWqRUu-10" style="edgeStyle=orthogonalEdgeStyle;rounded=0;orthogonalLoop=1;jettySize=auto;html=1;exitX=0.5;exitY=0;exitDx=0;exitDy=0;entryX=0.5;entryY=1;entryDx=0;entryDy=0;" parent="1" source="X9N_k1nun9EKNNsWqRUu-9" target="X9N_k1nun9EKNNsWqRUu-2" edge="1">
          <mxGeometry relative="1" as="geometry" />
        </mxCell>
        <mxCell id="X9N_k1nun9EKNNsWqRUu-11" style="edgeStyle=orthogonalEdgeStyle;rounded=0;orthogonalLoop=1;jettySize=auto;html=1;exitX=0.5;exitY=0;exitDx=0;exitDy=0;entryX=0.5;entryY=1;entryDx=0;entryDy=0;" parent="1" source="X9N_k1nun9EKNNsWqRUu-9" target="X9N_k1nun9EKNNsWqRUu-3" edge="1">
          <mxGeometry relative="1" as="geometry" />
        </mxCell>
        <mxCell id="X9N_k1nun9EKNNsWqRUu-12" style="edgeStyle=orthogonalEdgeStyle;rounded=0;orthogonalLoop=1;jettySize=auto;html=1;exitX=0.5;exitY=0;exitDx=0;exitDy=0;entryX=0.5;entryY=1;entryDx=0;entryDy=0;" parent="1" source="X9N_k1nun9EKNNsWqRUu-9" target="X9N_k1nun9EKNNsWqRUu-4" edge="1">
          <mxGeometry relative="1" as="geometry" />
        </mxCell>
        <mxCell id="X9N_k1nun9EKNNsWqRUu-13" style="edgeStyle=orthogonalEdgeStyle;rounded=0;orthogonalLoop=1;jettySize=auto;html=1;exitX=0.5;exitY=1;exitDx=0;exitDy=0;entryX=0.5;entryY=0;entryDx=0;entryDy=0;entryPerimeter=0;" parent="1" source="X9N_k1nun9EKNNsWqRUu-9" target="X9N_k1nun9EKNNsWqRUu-1" edge="1">
          <mxGeometry relative="1" as="geometry" />
        </mxCell>
        <mxCell id="X9N_k1nun9EKNNsWqRUu-9" value="Metric scrapper" style="rounded=1;whiteSpace=wrap;html=1;absoluteArcSize=1;arcSize=14;strokeWidth=2;sketch=1;hachureGap=4;jiggle=2;curveFitting=1;fontFamily=Architects Daughter;fontSource=https%3A%2F%2Ffonts.googleapis.com%2Fcss%3Ffamily%3DArchitects%2BDaughter;fontSize=20;fillColor=#f8cecc;strokeColor=#b85450;" parent="1" vertex="1">
          <mxGeometry x="140" y="190" width="100" height="73" as="geometry" />
        </mxCell>
        <mxCell id="X9N_k1nun9EKNNsWqRUu-16" value="" style="shape=cross;whiteSpace=wrap;html=1;rotation=-45;fillColor=#f8cecc;strokeColor=#b85450;" parent="1" vertex="1">
          <mxGeometry x="240" y="150" width="30" height="30" as="geometry" />
        </mxCell>
        <object placeholders="1" c4Name="e-commerce product" c4Type="ContainerScopeBoundary" c4Application="Container" label="&lt;font style=&quot;font-size: 16px&quot;&gt;&lt;b&gt;&lt;div style=&quot;text-align: left&quot;&gt;%c4Name%&lt;/div&gt;&lt;/b&gt;&lt;/font&gt;&lt;div style=&quot;text-align: left&quot;&gt;[%c4Application%]&lt;/div&gt;" id="X9N_k1nun9EKNNsWqRUu-21">
          <mxCell style="rounded=1;fontSize=11;whiteSpace=wrap;html=1;dashed=1;arcSize=20;fillColor=none;strokeColor=#666666;fontColor=#333333;labelBackgroundColor=none;align=left;verticalAlign=bottom;labelBorderColor=none;spacingTop=0;spacing=10;dashPattern=8 4;metaEdit=1;rotatable=0;perimeter=rectanglePerimeter;noLabel=0;labelPadding=0;allowArrows=0;connectable=0;expand=0;recursiveResize=0;editable=1;pointerEvents=0;absoluteArcSize=1;points=[[0.25,0,0],[0.5,0,0],[0.75,0,0],[1,0.25,0],[1,0.5,0],[1,0.75,0],[0.75,1,0],[0.5,1,0],[0.25,1,0],[0,0.75,0],[0,0.5,0],[0,0.25,0]];sketch=1;hachureGap=4;jiggle=2;curveFitting=1;fontFamily=Architects Daughter;fontSource=https%3A%2F%2Ffonts.googleapis.com%2Fcss%3Ffamily%3DArchitects%2BDaughter;" parent="1" vertex="1">
            <mxGeometry x="590" y="50" width="380" height="310" as="geometry" />
          </mxCell>
        </object>
        <mxCell id="X9N_k1nun9EKNNsWqRUu-26" style="edgeStyle=orthogonalEdgeStyle;rounded=0;orthogonalLoop=1;jettySize=auto;html=1;exitX=0.5;exitY=1;exitDx=0;exitDy=0;entryX=0.5;entryY=0;entryDx=0;entryDy=0;" parent="1" source="X9N_k1nun9EKNNsWqRUu-22" target="X9N_k1nun9EKNNsWqRUu-23" edge="1">
          <mxGeometry relative="1" as="geometry" />
        </mxCell>
        <mxCell id="X9N_k1nun9EKNNsWqRUu-22" value="component 1" style="rounded=1;whiteSpace=wrap;html=1;absoluteArcSize=1;arcSize=14;strokeWidth=2;sketch=1;hachureGap=4;jiggle=2;curveFitting=1;fontFamily=Architects Daughter;fontSource=https%3A%2F%2Ffonts.googleapis.com%2Fcss%3Ffamily%3DArchitects%2BDaughter;fontSize=20;fillColor=#fff2cc;strokeColor=#d6b656;" parent="1" vertex="1">
          <mxGeometry x="600" y="78" width="100" height="73" as="geometry" />
        </mxCell>
        <mxCell id="X9N_k1nun9EKNNsWqRUu-27" style="edgeStyle=orthogonalEdgeStyle;rounded=0;orthogonalLoop=1;jettySize=auto;html=1;exitX=1;exitY=0.5;exitDx=0;exitDy=0;entryX=0;entryY=0.5;entryDx=0;entryDy=0;" parent="1" source="X9N_k1nun9EKNNsWqRUu-23" target="X9N_k1nun9EKNNsWqRUu-24" edge="1">
          <mxGeometry relative="1" as="geometry" />
        </mxCell>
        <mxCell id="X9N_k1nun9EKNNsWqRUu-23" value="component 2" style="rounded=1;whiteSpace=wrap;html=1;absoluteArcSize=1;arcSize=14;strokeWidth=2;sketch=1;hachureGap=4;jiggle=2;curveFitting=1;fontFamily=Architects Daughter;fontSource=https%3A%2F%2Ffonts.googleapis.com%2Fcss%3Ffamily%3DArchitects%2BDaughter;fontSize=20;fillColor=#fff2cc;strokeColor=#d6b656;" parent="1" vertex="1">
          <mxGeometry x="600" y="240" width="100" height="73" as="geometry" />
        </mxCell>
        <mxCell id="X9N_k1nun9EKNNsWqRUu-29" style="edgeStyle=orthogonalEdgeStyle;rounded=0;orthogonalLoop=1;jettySize=auto;html=1;exitX=0.5;exitY=1;exitDx=0;exitDy=0;entryX=0.5;entryY=0;entryDx=0;entryDy=0;" parent="1" source="X9N_k1nun9EKNNsWqRUu-24" target="X9N_k1nun9EKNNsWqRUu-25" edge="1">
          <mxGeometry relative="1" as="geometry" />
        </mxCell>
        <mxCell id="X9N_k1nun9EKNNsWqRUu-24" value="component 3" style="rounded=1;whiteSpace=wrap;html=1;absoluteArcSize=1;arcSize=14;strokeWidth=2;sketch=1;hachureGap=4;jiggle=2;curveFitting=1;fontFamily=Architects Daughter;fontSource=https%3A%2F%2Ffonts.googleapis.com%2Fcss%3Ffamily%3DArchitects%2BDaughter;fontSize=20;fillColor=#fff2cc;strokeColor=#d6b656;" parent="1" vertex="1">
          <mxGeometry x="820" y="70" width="100" height="73" as="geometry" />
        </mxCell>
        <mxCell id="X9N_k1nun9EKNNsWqRUu-36" style="edgeStyle=orthogonalEdgeStyle;rounded=0;orthogonalLoop=1;jettySize=auto;html=1;exitX=1;exitY=0.5;exitDx=0;exitDy=0;entryX=0.07;entryY=0.4;entryDx=0;entryDy=0;entryPerimeter=0;" parent="1" source="X9N_k1nun9EKNNsWqRUu-25" target="X9N_k1nun9EKNNsWqRUu-34" edge="1">
          <mxGeometry relative="1" as="geometry" />
        </mxCell>
        <mxCell id="X9N_k1nun9EKNNsWqRUu-37" style="edgeStyle=orthogonalEdgeStyle;rounded=0;orthogonalLoop=1;jettySize=auto;html=1;exitX=1;exitY=0.5;exitDx=0;exitDy=0;entryX=0.13;entryY=0.77;entryDx=0;entryDy=0;entryPerimeter=0;" parent="1" source="X9N_k1nun9EKNNsWqRUu-25" target="X9N_k1nun9EKNNsWqRUu-34" edge="1">
          <mxGeometry relative="1" as="geometry" />
        </mxCell>
        <mxCell id="X9N_k1nun9EKNNsWqRUu-25" value="confirmation service" style="rounded=1;whiteSpace=wrap;html=1;absoluteArcSize=1;arcSize=14;strokeWidth=2;sketch=1;hachureGap=4;jiggle=2;curveFitting=1;fontFamily=Architects Daughter;fontSource=https%3A%2F%2Ffonts.googleapis.com%2Fcss%3Ffamily%3DArchitects%2BDaughter;fontSize=20;fillColor=#f8cecc;strokeColor=#b85450;" parent="1" vertex="1">
          <mxGeometry x="800" y="200" width="140" height="90" as="geometry" />
        </mxCell>
        <mxCell id="X9N_k1nun9EKNNsWqRUu-33" value="" style="group;" parent="1" vertex="1" connectable="0">
          <mxGeometry x="1340" y="160" width="110" height="110" as="geometry" />
        </mxCell>
        <mxCell id="X9N_k1nun9EKNNsWqRUu-31" value="" style="shape=actor;whiteSpace=wrap;html=1;fillColor=#dae8fc;strokeColor=#6c8ebf;sketch=1;curveFitting=1;jiggle=2;" parent="X9N_k1nun9EKNNsWqRUu-33" vertex="1">
          <mxGeometry x="35" width="40" height="60" as="geometry" />
        </mxCell>
        <mxCell id="X9N_k1nun9EKNNsWqRUu-32" value="Customer" style="text;html=1;align=center;verticalAlign=middle;resizable=0;points=[];autosize=1;strokeColor=none;fillColor=none;fontSize=20;fontFamily=Architects Daughter;" parent="X9N_k1nun9EKNNsWqRUu-33" vertex="1">
          <mxGeometry y="70" width="110" height="40" as="geometry" />
        </mxCell>
        <mxCell id="X9N_k1nun9EKNNsWqRUu-34" value="email" style="ellipse;shape=cloud;whiteSpace=wrap;html=1;fillColor=#ffe6cc;strokeColor=#d79b00;sketch=1;curveFitting=1;jiggle=2;" parent="1" vertex="1">
          <mxGeometry x="1150" y="165" width="120" height="80" as="geometry" />
        </mxCell>
        <mxCell id="X9N_k1nun9EKNNsWqRUu-35" style="edgeStyle=orthogonalEdgeStyle;rounded=0;orthogonalLoop=1;jettySize=auto;html=1;exitX=0;exitY=0.75;exitDx=0;exitDy=0;entryX=0.875;entryY=0.5;entryDx=0;entryDy=0;entryPerimeter=0;" parent="1" source="X9N_k1nun9EKNNsWqRUu-31" target="X9N_k1nun9EKNNsWqRUu-34" edge="1">
          <mxGeometry relative="1" as="geometry" />
        </mxCell>
        <mxCell id="X9N_k1nun9EKNNsWqRUu-38" value="" style="shape=cross;whiteSpace=wrap;html=1;rotation=-45;fillColor=#f8cecc;strokeColor=#b85450;" parent="1" vertex="1">
          <mxGeometry x="1080" y="180" width="30" height="30" as="geometry" />
        </mxCell>
        <mxCell id="7GdfnX9ITJaRkUPmR8bu-1" value="" style="group;" parent="1" vertex="1" connectable="0">
          <mxGeometry x="50" y="585" width="120" height="110" as="geometry" />
        </mxCell>
        <mxCell id="7GdfnX9ITJaRkUPmR8bu-2" value="" style="shape=actor;whiteSpace=wrap;html=1;fillColor=#dae8fc;strokeColor=#6c8ebf;sketch=1;curveFitting=1;jiggle=2;" parent="7GdfnX9ITJaRkUPmR8bu-1" vertex="1">
          <mxGeometry x="35" width="40" height="60" as="geometry" />
        </mxCell>
        <mxCell id="7GdfnX9ITJaRkUPmR8bu-3" value="User 1" style="text;html=1;align=center;verticalAlign=middle;resizable=0;points=[];autosize=1;strokeColor=none;fillColor=none;fontSize=20;fontFamily=Architects Daughter;" parent="7GdfnX9ITJaRkUPmR8bu-1" vertex="1">
          <mxGeometry x="15" y="70" width="80" height="40" as="geometry" />
        </mxCell>
        <mxCell id="7GdfnX9ITJaRkUPmR8bu-7" value="" style="group;" parent="1" vertex="1" connectable="0">
          <mxGeometry x="540" y="567.5" width="120" height="110" as="geometry" />
        </mxCell>
        <mxCell id="7GdfnX9ITJaRkUPmR8bu-8" value="" style="shape=actor;whiteSpace=wrap;html=1;fillColor=#dae8fc;strokeColor=#6c8ebf;sketch=1;curveFitting=1;jiggle=2;" parent="7GdfnX9ITJaRkUPmR8bu-7" vertex="1">
          <mxGeometry x="35" width="40" height="60" as="geometry" />
        </mxCell>
        <mxCell id="7GdfnX9ITJaRkUPmR8bu-9" value="User 2" style="text;html=1;align=center;verticalAlign=middle;resizable=0;points=[];autosize=1;strokeColor=none;fillColor=none;fontSize=20;fontFamily=Architects Daughter;" parent="7GdfnX9ITJaRkUPmR8bu-7" vertex="1">
          <mxGeometry x="10" y="70" width="90" height="40" as="geometry" />
        </mxCell>
        <mxCell id="7GdfnX9ITJaRkUPmR8bu-15" style="edgeStyle=orthogonalEdgeStyle;rounded=0;orthogonalLoop=1;jettySize=auto;html=1;exitX=1;exitY=0.25;exitDx=0;exitDy=0;entryX=0;entryY=0.75;entryDx=0;entryDy=0;" parent="1" source="7GdfnX9ITJaRkUPmR8bu-11" target="7GdfnX9ITJaRkUPmR8bu-8" edge="1">
          <mxGeometry relative="1" as="geometry" />
        </mxCell>
        <mxCell id="7GdfnX9ITJaRkUPmR8bu-16" style="edgeStyle=orthogonalEdgeStyle;rounded=0;orthogonalLoop=1;jettySize=auto;html=1;exitX=1;exitY=0.75;exitDx=0;exitDy=0;entryX=0;entryY=0.75;entryDx=0;entryDy=0;" parent="1" source="7GdfnX9ITJaRkUPmR8bu-11" target="7GdfnX9ITJaRkUPmR8bu-8" edge="1">
          <mxGeometry relative="1" as="geometry" />
        </mxCell>
        <mxCell id="7GdfnX9ITJaRkUPmR8bu-11" value="Money transfer service" style="rounded=1;whiteSpace=wrap;html=1;absoluteArcSize=1;arcSize=14;strokeWidth=2;sketch=1;hachureGap=4;jiggle=2;curveFitting=1;fontFamily=Architects Daughter;fontSource=https%3A%2F%2Ffonts.googleapis.com%2Fcss%3Ffamily%3DArchitects%2BDaughter;fontSize=20;fillColor=#d5e8d4;strokeColor=#82b366;" parent="1" vertex="1">
          <mxGeometry x="264" y="572.5" width="150" height="105" as="geometry" />
        </mxCell>
        <mxCell id="7GdfnX9ITJaRkUPmR8bu-12" style="edgeStyle=orthogonalEdgeStyle;rounded=0;orthogonalLoop=1;jettySize=auto;html=1;exitX=1;exitY=0.75;exitDx=0;exitDy=0;entryX=0;entryY=0.75;entryDx=0;entryDy=0;" parent="1" source="7GdfnX9ITJaRkUPmR8bu-2" target="7GdfnX9ITJaRkUPmR8bu-11" edge="1">
          <mxGeometry relative="1" as="geometry" />
        </mxCell>
        <mxCell id="7GdfnX9ITJaRkUPmR8bu-13" style="edgeStyle=orthogonalEdgeStyle;rounded=0;orthogonalLoop=1;jettySize=auto;html=1;exitX=1;exitY=0.75;exitDx=0;exitDy=0;entryX=0;entryY=0.25;entryDx=0;entryDy=0;" parent="1" source="7GdfnX9ITJaRkUPmR8bu-2" target="7GdfnX9ITJaRkUPmR8bu-11" edge="1">
          <mxGeometry relative="1" as="geometry" />
        </mxCell>
        <mxCell id="7GdfnX9ITJaRkUPmR8bu-17" value="" style="shape=cross;whiteSpace=wrap;html=1;rotation=-45;fillColor=#f8cecc;strokeColor=#b85450;" parent="1" vertex="1">
          <mxGeometry x="210" y="585" width="30" height="30" as="geometry" />
        </mxCell>
        <mxCell id="7GdfnX9ITJaRkUPmR8bu-18" value="" style="shape=cross;whiteSpace=wrap;html=1;rotation=-45;fillColor=#f8cecc;strokeColor=#b85450;" parent="1" vertex="1">
          <mxGeometry x="440" y="638" width="30" height="30" as="geometry" />
        </mxCell>
        <mxCell id="7GdfnX9ITJaRkUPmR8bu-25" style="edgeStyle=orthogonalEdgeStyle;rounded=0;orthogonalLoop=1;jettySize=auto;html=1;exitX=1;exitY=0.5;exitDx=0;exitDy=0;entryX=0;entryY=0.5;entryDx=0;entryDy=0;" parent="1" source="7GdfnX9ITJaRkUPmR8bu-19" target="7GdfnX9ITJaRkUPmR8bu-20" edge="1">
          <mxGeometry relative="1" as="geometry" />
        </mxCell>
        <mxCell id="7GdfnX9ITJaRkUPmR8bu-19" value="producer" style="rounded=1;whiteSpace=wrap;html=1;absoluteArcSize=1;arcSize=14;strokeWidth=2;sketch=1;hachureGap=4;jiggle=2;curveFitting=1;fontFamily=Architects Daughter;fontSource=https%3A%2F%2Ffonts.googleapis.com%2Fcss%3Ffamily%3DArchitects%2BDaughter;fontSize=20;fillColor=#fff2cc;strokeColor=#d6b656;" parent="1" vertex="1">
          <mxGeometry x="120" y="890" width="100" height="73" as="geometry" />
        </mxCell>
        <mxCell id="7GdfnX9ITJaRkUPmR8bu-20" value="consumer" style="rounded=1;whiteSpace=wrap;html=1;absoluteArcSize=1;arcSize=14;strokeWidth=2;sketch=1;hachureGap=4;jiggle=2;curveFitting=1;fontFamily=Architects Daughter;fontSource=https%3A%2F%2Ffonts.googleapis.com%2Fcss%3Ffamily%3DArchitects%2BDaughter;fontSize=20;fillColor=#fff2cc;strokeColor=#d6b656;" parent="1" vertex="1">
          <mxGeometry x="435" y="890" width="100" height="73" as="geometry" />
        </mxCell>
        <mxCell id="7GdfnX9ITJaRkUPmR8bu-21" value="message" style="shape=note;whiteSpace=wrap;html=1;backgroundOutline=1;darkOpacity=0.05;sketch=1;curveFitting=1;jiggle=2;fillColor=#e1d5e7;strokeColor=#9673a6;size=20;" parent="1" vertex="1">
          <mxGeometry x="297.20000000000005" y="890" width="45.6" height="57" as="geometry" />
        </mxCell>
        <mxCell id="7GdfnX9ITJaRkUPmR8bu-26" style="edgeStyle=orthogonalEdgeStyle;rounded=0;orthogonalLoop=1;jettySize=auto;html=1;exitX=1;exitY=0.5;exitDx=0;exitDy=0;entryX=0;entryY=0.5;entryDx=0;entryDy=0;" parent="1" source="7GdfnX9ITJaRkUPmR8bu-27" target="7GdfnX9ITJaRkUPmR8bu-28" edge="1">
          <mxGeometry relative="1" as="geometry" />
        </mxCell>
        <mxCell id="7GdfnX9ITJaRkUPmR8bu-27" value="producer" style="rounded=1;whiteSpace=wrap;html=1;absoluteArcSize=1;arcSize=14;strokeWidth=2;sketch=1;hachureGap=4;jiggle=2;curveFitting=1;fontFamily=Architects Daughter;fontSource=https%3A%2F%2Ffonts.googleapis.com%2Fcss%3Ffamily%3DArchitects%2BDaughter;fontSize=20;fillColor=#fff2cc;strokeColor=#d6b656;" parent="1" vertex="1">
          <mxGeometry x="120" y="1050" width="100" height="73" as="geometry" />
        </mxCell>
        <mxCell id="7GdfnX9ITJaRkUPmR8bu-28" value="consumer" style="rounded=1;whiteSpace=wrap;html=1;absoluteArcSize=1;arcSize=14;strokeWidth=2;sketch=1;hachureGap=4;jiggle=2;curveFitting=1;fontFamily=Architects Daughter;fontSource=https%3A%2F%2Ffonts.googleapis.com%2Fcss%3Ffamily%3DArchitects%2BDaughter;fontSize=20;fillColor=#fff2cc;strokeColor=#d6b656;" parent="1" vertex="1">
          <mxGeometry x="435" y="1050" width="100" height="73" as="geometry" />
        </mxCell>
        <mxCell id="7GdfnX9ITJaRkUPmR8bu-29" value="message" style="shape=note;whiteSpace=wrap;html=1;backgroundOutline=1;darkOpacity=0.05;sketch=1;curveFitting=1;jiggle=2;fillColor=#e1d5e7;strokeColor=#9673a6;size=20;" parent="1" vertex="1">
          <mxGeometry x="260.00000000000006" y="1052.5" width="45.6" height="57" as="geometry" />
        </mxCell>
        <mxCell id="7GdfnX9ITJaRkUPmR8bu-30" value="" style="shape=cross;whiteSpace=wrap;html=1;rotation=-45;fillColor=#f8cecc;strokeColor=#b85450;" parent="1" vertex="1">
          <mxGeometry x="373" y="1074" width="30" height="30" as="geometry" />
        </mxCell>
        <mxCell id="HqmsnjmEhXUSYzi50hac-1" style="edgeStyle=orthogonalEdgeStyle;rounded=0;orthogonalLoop=1;jettySize=auto;html=1;exitX=1;exitY=0.5;exitDx=0;exitDy=0;entryX=0;entryY=0.5;entryDx=0;entryDy=0;" parent="1" source="HqmsnjmEhXUSYzi50hac-2" target="HqmsnjmEhXUSYzi50hac-3" edge="1">
          <mxGeometry relative="1" as="geometry" />
        </mxCell>
        <mxCell id="HqmsnjmEhXUSYzi50hac-2" value="producer" style="rounded=1;whiteSpace=wrap;html=1;absoluteArcSize=1;arcSize=14;strokeWidth=2;sketch=1;hachureGap=4;jiggle=2;curveFitting=1;fontFamily=Architects Daughter;fontSource=https%3A%2F%2Ffonts.googleapis.com%2Fcss%3Ffamily%3DArchitects%2BDaughter;fontSize=20;fillColor=#fff2cc;strokeColor=#d6b656;" parent="1" vertex="1">
          <mxGeometry x="900" y="860" width="100" height="73" as="geometry" />
        </mxCell>
        <mxCell id="HqmsnjmEhXUSYzi50hac-3" value="consumer" style="rounded=1;whiteSpace=wrap;html=1;absoluteArcSize=1;arcSize=14;strokeWidth=2;sketch=1;hachureGap=4;jiggle=2;curveFitting=1;fontFamily=Architects Daughter;fontSource=https%3A%2F%2Ffonts.googleapis.com%2Fcss%3Ffamily%3DArchitects%2BDaughter;fontSize=20;fillColor=#fff2cc;strokeColor=#d6b656;" parent="1" vertex="1">
          <mxGeometry x="1215" y="860" width="100" height="73" as="geometry" />
        </mxCell>
        <mxCell id="HqmsnjmEhXUSYzi50hac-4" value="message" style="shape=note;whiteSpace=wrap;html=1;backgroundOutline=1;darkOpacity=0.05;sketch=1;curveFitting=1;jiggle=2;fillColor=#e1d5e7;strokeColor=#9673a6;size=20;" parent="1" vertex="1">
          <mxGeometry x="1077.2" y="860" width="45.6" height="57" as="geometry" />
        </mxCell>
        <mxCell id="HqmsnjmEhXUSYzi50hac-11" style="edgeStyle=orthogonalEdgeStyle;rounded=0;orthogonalLoop=1;jettySize=auto;html=1;exitX=1;exitY=0.25;exitDx=0;exitDy=0;entryX=0;entryY=0.25;entryDx=0;entryDy=0;" parent="1" source="HqmsnjmEhXUSYzi50hac-6" target="HqmsnjmEhXUSYzi50hac-7" edge="1">
          <mxGeometry relative="1" as="geometry" />
        </mxCell>
        <mxCell id="HqmsnjmEhXUSYzi50hac-17" style="edgeStyle=orthogonalEdgeStyle;rounded=0;orthogonalLoop=1;jettySize=auto;html=1;exitX=1;exitY=0.75;exitDx=0;exitDy=0;entryX=0;entryY=0.75;entryDx=0;entryDy=0;" parent="1" source="HqmsnjmEhXUSYzi50hac-6" target="HqmsnjmEhXUSYzi50hac-7" edge="1">
          <mxGeometry relative="1" as="geometry" />
        </mxCell>
        <mxCell id="HqmsnjmEhXUSYzi50hac-6" value="producer" style="rounded=1;whiteSpace=wrap;html=1;absoluteArcSize=1;arcSize=14;strokeWidth=2;sketch=1;hachureGap=4;jiggle=2;curveFitting=1;fontFamily=Architects Daughter;fontSource=https%3A%2F%2Ffonts.googleapis.com%2Fcss%3Ffamily%3DArchitects%2BDaughter;fontSize=20;fillColor=#fff2cc;strokeColor=#d6b656;" parent="1" vertex="1">
          <mxGeometry x="900" y="1020" width="100" height="73" as="geometry" />
        </mxCell>
        <mxCell id="HqmsnjmEhXUSYzi50hac-7" value="consumer" style="rounded=1;whiteSpace=wrap;html=1;absoluteArcSize=1;arcSize=14;strokeWidth=2;sketch=1;hachureGap=4;jiggle=2;curveFitting=1;fontFamily=Architects Daughter;fontSource=https%3A%2F%2Ffonts.googleapis.com%2Fcss%3Ffamily%3DArchitects%2BDaughter;fontSize=20;fillColor=#fff2cc;strokeColor=#d6b656;" parent="1" vertex="1">
          <mxGeometry x="1215" y="1020" width="100" height="73" as="geometry" />
        </mxCell>
        <mxCell id="HqmsnjmEhXUSYzi50hac-8" value="message" style="shape=note;whiteSpace=wrap;html=1;backgroundOutline=1;darkOpacity=0.05;sketch=1;curveFitting=1;jiggle=2;fillColor=#e1d5e7;strokeColor=#9673a6;size=20;" parent="1" vertex="1">
          <mxGeometry x="1060" y="1000" width="45.6" height="57" as="geometry" />
        </mxCell>
        <mxCell id="HqmsnjmEhXUSYzi50hac-9" value="" style="shape=cross;whiteSpace=wrap;html=1;rotation=-45;fillColor=#f8cecc;strokeColor=#b85450;" parent="1" vertex="1">
          <mxGeometry x="1160" y="1022" width="30" height="30" as="geometry" />
        </mxCell>
        <mxCell id="HqmsnjmEhXUSYzi50hac-18" value="message" style="shape=note;whiteSpace=wrap;html=1;backgroundOutline=1;darkOpacity=0.05;sketch=1;curveFitting=1;jiggle=2;fillColor=#e1d5e7;strokeColor=#9673a6;size=20;" parent="1" vertex="1">
          <mxGeometry x="1114.4" y="1047" width="45.6" height="57" as="geometry" />
        </mxCell>
        <mxCell id="nVltp_dW7A7kv0RR8O9B-1" style="edgeStyle=orthogonalEdgeStyle;rounded=0;orthogonalLoop=1;jettySize=auto;html=1;exitX=1;exitY=0.5;exitDx=0;exitDy=0;entryX=0;entryY=0.5;entryDx=0;entryDy=0;" edge="1" parent="1" source="nVltp_dW7A7kv0RR8O9B-2" target="nVltp_dW7A7kv0RR8O9B-3">
          <mxGeometry relative="1" as="geometry" />
        </mxCell>
        <mxCell id="nVltp_dW7A7kv0RR8O9B-2" value="producer" style="rounded=1;whiteSpace=wrap;html=1;absoluteArcSize=1;arcSize=14;strokeWidth=2;sketch=1;hachureGap=4;jiggle=2;curveFitting=1;fontFamily=Architects Daughter;fontSource=https%3A%2F%2Ffonts.googleapis.com%2Fcss%3Ffamily%3DArchitects%2BDaughter;fontSize=20;fillColor=#fff2cc;strokeColor=#d6b656;" vertex="1" parent="1">
          <mxGeometry x="900" y="1160" width="100" height="73" as="geometry" />
        </mxCell>
        <mxCell id="nVltp_dW7A7kv0RR8O9B-3" value="consumer" style="rounded=1;whiteSpace=wrap;html=1;absoluteArcSize=1;arcSize=14;strokeWidth=2;sketch=1;hachureGap=4;jiggle=2;curveFitting=1;fontFamily=Architects Daughter;fontSource=https%3A%2F%2Ffonts.googleapis.com%2Fcss%3Ffamily%3DArchitects%2BDaughter;fontSize=20;fillColor=#fff2cc;strokeColor=#d6b656;" vertex="1" parent="1">
          <mxGeometry x="1215" y="1160" width="100" height="73" as="geometry" />
        </mxCell>
        <mxCell id="nVltp_dW7A7kv0RR8O9B-4" value="message" style="shape=note;whiteSpace=wrap;html=1;backgroundOutline=1;darkOpacity=0.05;sketch=1;curveFitting=1;jiggle=2;fillColor=#e1d5e7;strokeColor=#9673a6;size=20;" vertex="1" parent="1">
          <mxGeometry x="1040" y="1162.5" width="45.6" height="57" as="geometry" />
        </mxCell>
        <mxCell id="nVltp_dW7A7kv0RR8O9B-5" value="" style="shape=cross;whiteSpace=wrap;html=1;rotation=-45;fillColor=#f8cecc;strokeColor=#b85450;" vertex="1" parent="1">
          <mxGeometry x="1153" y="1184" width="30" height="30" as="geometry" />
        </mxCell>
        <mxCell id="nVltp_dW7A7kv0RR8O9B-6" style="edgeStyle=orthogonalEdgeStyle;rounded=0;orthogonalLoop=1;jettySize=auto;html=1;exitX=1;exitY=0.25;exitDx=0;exitDy=0;entryX=0;entryY=0.25;entryDx=0;entryDy=0;" edge="1" parent="1" source="nVltp_dW7A7kv0RR8O9B-8" target="nVltp_dW7A7kv0RR8O9B-9">
          <mxGeometry relative="1" as="geometry" />
        </mxCell>
        <mxCell id="nVltp_dW7A7kv0RR8O9B-7" style="edgeStyle=orthogonalEdgeStyle;rounded=0;orthogonalLoop=1;jettySize=auto;html=1;exitX=1;exitY=0.75;exitDx=0;exitDy=0;entryX=0;entryY=0.75;entryDx=0;entryDy=0;" edge="1" parent="1" source="nVltp_dW7A7kv0RR8O9B-8" target="nVltp_dW7A7kv0RR8O9B-9">
          <mxGeometry relative="1" as="geometry" />
        </mxCell>
        <mxCell id="nVltp_dW7A7kv0RR8O9B-8" value="producer" style="rounded=1;whiteSpace=wrap;html=1;absoluteArcSize=1;arcSize=14;strokeWidth=2;sketch=1;hachureGap=4;jiggle=2;curveFitting=1;fontFamily=Architects Daughter;fontSource=https%3A%2F%2Ffonts.googleapis.com%2Fcss%3Ffamily%3DArchitects%2BDaughter;fontSize=20;fillColor=#fff2cc;strokeColor=#d6b656;" vertex="1" parent="1">
          <mxGeometry x="1560" y="1020" width="100" height="73" as="geometry" />
        </mxCell>
        <mxCell id="nVltp_dW7A7kv0RR8O9B-9" value="consumer" style="rounded=1;whiteSpace=wrap;html=1;absoluteArcSize=1;arcSize=14;strokeWidth=2;sketch=1;hachureGap=4;jiggle=2;curveFitting=1;fontFamily=Architects Daughter;fontSource=https%3A%2F%2Ffonts.googleapis.com%2Fcss%3Ffamily%3DArchitects%2BDaughter;fontSize=20;fillColor=#fff2cc;strokeColor=#d6b656;" vertex="1" parent="1">
          <mxGeometry x="1875" y="1020" width="100" height="73" as="geometry" />
        </mxCell>
        <mxCell id="nVltp_dW7A7kv0RR8O9B-10" value="message" style="shape=note;whiteSpace=wrap;html=1;backgroundOutline=1;darkOpacity=0.05;sketch=1;curveFitting=1;jiggle=2;fillColor=#e1d5e7;strokeColor=#9673a6;size=20;" vertex="1" parent="1">
          <mxGeometry x="1720" y="1000" width="45.6" height="57" as="geometry" />
        </mxCell>
        <mxCell id="nVltp_dW7A7kv0RR8O9B-11" value="" style="shape=cross;whiteSpace=wrap;html=1;rotation=-45;fillColor=#f8cecc;strokeColor=#b85450;" vertex="1" parent="1">
          <mxGeometry x="1820" y="1022" width="30" height="30" as="geometry" />
        </mxCell>
        <mxCell id="nVltp_dW7A7kv0RR8O9B-12" value="message" style="shape=note;whiteSpace=wrap;html=1;backgroundOutline=1;darkOpacity=0.05;sketch=1;curveFitting=1;jiggle=2;fillColor=#e1d5e7;strokeColor=#9673a6;size=20;" vertex="1" parent="1">
          <mxGeometry x="1774.4" y="1047" width="45.6" height="57" as="geometry" />
        </mxCell>
        <mxCell id="nVltp_dW7A7kv0RR8O9B-13" style="edgeStyle=orthogonalEdgeStyle;rounded=0;orthogonalLoop=1;jettySize=auto;html=1;exitX=1;exitY=0.5;exitDx=0;exitDy=0;entryX=0;entryY=0.5;entryDx=0;entryDy=0;" edge="1" parent="1" source="nVltp_dW7A7kv0RR8O9B-14" target="nVltp_dW7A7kv0RR8O9B-15">
          <mxGeometry relative="1" as="geometry" />
        </mxCell>
        <mxCell id="nVltp_dW7A7kv0RR8O9B-14" value="producer" style="rounded=1;whiteSpace=wrap;html=1;absoluteArcSize=1;arcSize=14;strokeWidth=2;sketch=1;hachureGap=4;jiggle=2;curveFitting=1;fontFamily=Architects Daughter;fontSource=https%3A%2F%2Ffonts.googleapis.com%2Fcss%3Ffamily%3DArchitects%2BDaughter;fontSize=20;fillColor=#fff2cc;strokeColor=#d6b656;" vertex="1" parent="1">
          <mxGeometry x="1560" y="1160" width="100" height="73" as="geometry" />
        </mxCell>
        <mxCell id="nVltp_dW7A7kv0RR8O9B-15" value="consumer" style="rounded=1;whiteSpace=wrap;html=1;absoluteArcSize=1;arcSize=14;strokeWidth=2;sketch=1;hachureGap=4;jiggle=2;curveFitting=1;fontFamily=Architects Daughter;fontSource=https%3A%2F%2Ffonts.googleapis.com%2Fcss%3Ffamily%3DArchitects%2BDaughter;fontSize=20;fillColor=#fff2cc;strokeColor=#d6b656;" vertex="1" parent="1">
          <mxGeometry x="1875" y="1160" width="100" height="73" as="geometry" />
        </mxCell>
        <mxCell id="nVltp_dW7A7kv0RR8O9B-16" value="message" style="shape=note;whiteSpace=wrap;html=1;backgroundOutline=1;darkOpacity=0.05;sketch=1;curveFitting=1;jiggle=2;fillColor=#e1d5e7;strokeColor=#9673a6;size=20;" vertex="1" parent="1">
          <mxGeometry x="1700" y="1162.5" width="45.6" height="57" as="geometry" />
        </mxCell>
        <mxCell id="nVltp_dW7A7kv0RR8O9B-17" value="" style="shape=cross;whiteSpace=wrap;html=1;rotation=-45;fillColor=#f8cecc;strokeColor=#b85450;" vertex="1" parent="1">
          <mxGeometry x="1813" y="1184" width="30" height="30" as="geometry" />
        </mxCell>
        <mxCell id="nVltp_dW7A7kv0RR8O9B-18" value="Duplicate" style="text;html=1;align=center;verticalAlign=middle;resizable=0;points=[];autosize=1;strokeColor=none;fillColor=none;fontSize=16;" vertex="1" parent="1">
          <mxGeometry x="1975" y="1028" width="90" height="30" as="geometry" />
        </mxCell>
        <mxCell id="nVltp_dW7A7kv0RR8O9B-19" value="Lost message" style="text;html=1;align=center;verticalAlign=middle;resizable=0;points=[];autosize=1;strokeColor=none;fillColor=none;fontSize=16;" vertex="1" parent="1">
          <mxGeometry x="1985" y="1176" width="120" height="30" as="geometry" />
        </mxCell>
        <mxCell id="nVltp_dW7A7kv0RR8O9B-30" style="edgeStyle=orthogonalEdgeStyle;rounded=0;orthogonalLoop=1;jettySize=auto;html=1;exitX=1;exitY=0.25;exitDx=0;exitDy=0;entryX=0;entryY=0.5;entryDx=0;entryDy=0;" edge="1" parent="1" source="nVltp_dW7A7kv0RR8O9B-22" target="nVltp_dW7A7kv0RR8O9B-28">
          <mxGeometry relative="1" as="geometry" />
        </mxCell>
        <mxCell id="nVltp_dW7A7kv0RR8O9B-31" style="edgeStyle=orthogonalEdgeStyle;rounded=0;orthogonalLoop=1;jettySize=auto;html=1;exitX=0;exitY=0.75;exitDx=0;exitDy=0;entryX=1;entryY=0.75;entryDx=0;entryDy=0;" edge="1" parent="1" source="nVltp_dW7A7kv0RR8O9B-22" target="nVltp_dW7A7kv0RR8O9B-24">
          <mxGeometry relative="1" as="geometry" />
        </mxCell>
        <mxCell id="nVltp_dW7A7kv0RR8O9B-22" value="consumer" style="rounded=1;whiteSpace=wrap;html=1;absoluteArcSize=1;arcSize=14;strokeWidth=2;sketch=1;hachureGap=4;jiggle=2;curveFitting=1;fontFamily=Architects Daughter;fontSource=https%3A%2F%2Ffonts.googleapis.com%2Fcss%3Ffamily%3DArchitects%2BDaughter;fontSize=20;fillColor=#fff2cc;strokeColor=#d6b656;" vertex="1" parent="1">
          <mxGeometry x="2110" y="622" width="100" height="73" as="geometry" />
        </mxCell>
        <mxCell id="nVltp_dW7A7kv0RR8O9B-29" style="edgeStyle=orthogonalEdgeStyle;rounded=0;orthogonalLoop=1;jettySize=auto;html=1;exitX=1;exitY=0.25;exitDx=0;exitDy=0;entryX=0;entryY=0.25;entryDx=0;entryDy=0;" edge="1" parent="1" source="nVltp_dW7A7kv0RR8O9B-24" target="nVltp_dW7A7kv0RR8O9B-22">
          <mxGeometry relative="1" as="geometry" />
        </mxCell>
        <mxCell id="nVltp_dW7A7kv0RR8O9B-24" value="Message broker" style="rounded=1;whiteSpace=wrap;html=1;absoluteArcSize=1;arcSize=14;strokeWidth=2;sketch=1;hachureGap=4;jiggle=2;curveFitting=1;fontFamily=Architects Daughter;fontSource=https%3A%2F%2Ffonts.googleapis.com%2Fcss%3Ffamily%3DArchitects%2BDaughter;fontSize=20;fillColor=#f8cecc;strokeColor=#b85450;" vertex="1" parent="1">
          <mxGeometry x="1760" y="622" width="100" height="73" as="geometry" />
        </mxCell>
        <mxCell id="nVltp_dW7A7kv0RR8O9B-28" value="logic" style="rounded=1;whiteSpace=wrap;html=1;absoluteArcSize=1;arcSize=14;strokeWidth=2;sketch=1;hachureGap=4;jiggle=2;curveFitting=1;fontFamily=Architects Daughter;fontSource=https%3A%2F%2Ffonts.googleapis.com%2Fcss%3Ffamily%3DArchitects%2BDaughter;fontSize=20;fillColor=#fff2cc;strokeColor=#d6b656;" vertex="1" parent="1">
          <mxGeometry x="2310" y="604.5" width="100" height="73" as="geometry" />
        </mxCell>
        <mxCell id="nVltp_dW7A7kv0RR8O9B-32" value="(1) get message" style="text;html=1;align=center;verticalAlign=middle;resizable=0;points=[];autosize=1;strokeColor=none;fillColor=none;fontSize=19;" vertex="1" parent="1">
          <mxGeometry x="1870" y="598" width="160" height="40" as="geometry" />
        </mxCell>
        <mxCell id="nVltp_dW7A7kv0RR8O9B-33" value="(2) ack" style="text;html=1;align=center;verticalAlign=middle;resizable=0;points=[];autosize=1;strokeColor=none;fillColor=none;fontSize=19;" vertex="1" parent="1">
          <mxGeometry x="1910" y="677.5" width="80" height="40" as="geometry" />
        </mxCell>
        <mxCell id="nVltp_dW7A7kv0RR8O9B-34" value="(3) process" style="text;html=1;align=center;verticalAlign=middle;resizable=0;points=[];autosize=1;strokeColor=none;fillColor=none;fontSize=19;" vertex="1" parent="1">
          <mxGeometry x="2190" y="585" width="120" height="40" as="geometry" />
        </mxCell>
        <mxCell id="nVltp_dW7A7kv0RR8O9B-36" value="" style="shape=cross;whiteSpace=wrap;html=1;rotation=-45;fillColor=#f8cecc;strokeColor=#b85450;" vertex="1" parent="1">
          <mxGeometry x="2220" y="628" width="30" height="30" as="geometry" />
        </mxCell>
        <mxCell id="nVltp_dW7A7kv0RR8O9B-37" value="" style="rounded=0;whiteSpace=wrap;html=1;fillColor=none;dashed=1;dashPattern=8 8;" vertex="1" parent="1">
          <mxGeometry x="2104.4" y="165" width="465.6" height="255" as="geometry" />
        </mxCell>
        <mxCell id="nVltp_dW7A7kv0RR8O9B-39" style="edgeStyle=orthogonalEdgeStyle;rounded=0;orthogonalLoop=1;jettySize=auto;html=1;exitX=0;exitY=0.75;exitDx=0;exitDy=0;entryX=1;entryY=0.75;entryDx=0;entryDy=0;" edge="1" parent="1" source="nVltp_dW7A7kv0RR8O9B-40" target="nVltp_dW7A7kv0RR8O9B-42">
          <mxGeometry relative="1" as="geometry" />
        </mxCell>
        <mxCell id="nVltp_dW7A7kv0RR8O9B-52" style="edgeStyle=orthogonalEdgeStyle;rounded=0;orthogonalLoop=1;jettySize=auto;html=1;exitX=1;exitY=0.25;exitDx=0;exitDy=0;entryX=0;entryY=0.25;entryDx=0;entryDy=0;" edge="1" parent="1" source="nVltp_dW7A7kv0RR8O9B-40" target="nVltp_dW7A7kv0RR8O9B-50">
          <mxGeometry relative="1" as="geometry" />
        </mxCell>
        <mxCell id="nVltp_dW7A7kv0RR8O9B-53" style="edgeStyle=orthogonalEdgeStyle;rounded=0;orthogonalLoop=1;jettySize=auto;html=1;exitX=1;exitY=0.75;exitDx=0;exitDy=0;entryX=0;entryY=0.75;entryDx=0;entryDy=0;" edge="1" parent="1" source="nVltp_dW7A7kv0RR8O9B-40" target="nVltp_dW7A7kv0RR8O9B-50">
          <mxGeometry relative="1" as="geometry" />
        </mxCell>
        <mxCell id="nVltp_dW7A7kv0RR8O9B-40" value="consumer" style="rounded=1;whiteSpace=wrap;html=1;absoluteArcSize=1;arcSize=14;strokeWidth=2;sketch=1;hachureGap=4;jiggle=2;curveFitting=1;fontFamily=Architects Daughter;fontSource=https%3A%2F%2Ffonts.googleapis.com%2Fcss%3Ffamily%3DArchitects%2BDaughter;fontSize=20;fillColor=#fff2cc;strokeColor=#d6b656;" vertex="1" parent="1">
          <mxGeometry x="2124.4" y="214.5" width="145.6" height="115.5" as="geometry" />
        </mxCell>
        <mxCell id="nVltp_dW7A7kv0RR8O9B-41" style="edgeStyle=orthogonalEdgeStyle;rounded=0;orthogonalLoop=1;jettySize=auto;html=1;exitX=1;exitY=0.25;exitDx=0;exitDy=0;entryX=0;entryY=0.25;entryDx=0;entryDy=0;" edge="1" parent="1" source="nVltp_dW7A7kv0RR8O9B-42" target="nVltp_dW7A7kv0RR8O9B-40">
          <mxGeometry relative="1" as="geometry" />
        </mxCell>
        <mxCell id="nVltp_dW7A7kv0RR8O9B-48" style="edgeStyle=orthogonalEdgeStyle;rounded=0;orthogonalLoop=1;jettySize=auto;html=1;exitX=1;exitY=0.5;exitDx=0;exitDy=0;entryX=0;entryY=0.5;entryDx=0;entryDy=0;" edge="1" parent="1" source="nVltp_dW7A7kv0RR8O9B-42" target="nVltp_dW7A7kv0RR8O9B-40">
          <mxGeometry relative="1" as="geometry" />
        </mxCell>
        <mxCell id="nVltp_dW7A7kv0RR8O9B-42" value="Message broker" style="rounded=1;whiteSpace=wrap;html=1;absoluteArcSize=1;arcSize=14;strokeWidth=2;sketch=1;hachureGap=4;jiggle=2;curveFitting=1;fontFamily=Architects Daughter;fontSource=https%3A%2F%2Ffonts.googleapis.com%2Fcss%3Ffamily%3DArchitects%2BDaughter;fontSize=20;fillColor=#f8cecc;strokeColor=#b85450;" vertex="1" parent="1">
          <mxGeometry x="1720" y="214.5" width="154.4" height="115.5" as="geometry" />
        </mxCell>
        <mxCell id="nVltp_dW7A7kv0RR8O9B-44" value="(1) get message" style="text;html=1;align=center;verticalAlign=middle;resizable=0;points=[];autosize=1;strokeColor=none;fillColor=none;fontSize=19;" vertex="1" parent="1">
          <mxGeometry x="1884.4" y="206.5" width="160" height="40" as="geometry" />
        </mxCell>
        <mxCell id="nVltp_dW7A7kv0RR8O9B-45" value="(5) ack" style="text;html=1;align=center;verticalAlign=middle;resizable=0;points=[];autosize=1;strokeColor=none;fillColor=none;fontSize=19;" vertex="1" parent="1">
          <mxGeometry x="1910" y="300" width="80" height="40" as="geometry" />
        </mxCell>
        <mxCell id="nVltp_dW7A7kv0RR8O9B-46" value="(2) process" style="text;html=1;align=center;verticalAlign=middle;resizable=0;points=[];autosize=1;strokeColor=none;fillColor=none;fontSize=19;" vertex="1" parent="1">
          <mxGeometry x="2270" y="195" width="120" height="40" as="geometry" />
        </mxCell>
        <mxCell id="nVltp_dW7A7kv0RR8O9B-50" value="notification provider" style="rounded=1;whiteSpace=wrap;html=1;absoluteArcSize=1;arcSize=14;strokeWidth=2;sketch=1;hachureGap=4;jiggle=2;curveFitting=1;fontFamily=Architects Daughter;fontSource=https%3A%2F%2Ffonts.googleapis.com%2Fcss%3Ffamily%3DArchitects%2BDaughter;fontSize=20;fillColor=#dae8fc;strokeColor=#6c8ebf;" vertex="1" parent="1">
          <mxGeometry x="2400" y="214.5" width="145.6" height="115.5" as="geometry" />
        </mxCell>
        <mxCell id="nVltp_dW7A7kv0RR8O9B-51" value="(3) repeat: get message" style="text;html=1;align=center;verticalAlign=middle;resizable=0;points=[];autosize=1;strokeColor=none;fillColor=none;fontSize=19;" vertex="1" parent="1">
          <mxGeometry x="1880" y="240" width="230" height="40" as="geometry" />
        </mxCell>
        <mxCell id="nVltp_dW7A7kv0RR8O9B-56" value="" style="shape=cross;whiteSpace=wrap;html=1;rotation=-45;fillColor=#f8cecc;strokeColor=#b85450;" vertex="1" parent="1">
          <mxGeometry x="2321" y="230" width="30" height="30" as="geometry" />
        </mxCell>
        <mxCell id="nVltp_dW7A7kv0RR8O9B-57" value="(4) process&amp;nbsp;&lt;div&gt;again&lt;/div&gt;" style="text;html=1;align=center;verticalAlign=middle;resizable=0;points=[];autosize=1;strokeColor=none;fillColor=none;fontSize=19;" vertex="1" parent="1">
          <mxGeometry x="2276" y="300" width="120" height="60" as="geometry" />
        </mxCell>
        <mxCell id="nVltp_dW7A7kv0RR8O9B-58" value="" style="rounded=0;whiteSpace=wrap;html=1;fillColor=none;dashed=1;dashPattern=8 8;" vertex="1" parent="1">
          <mxGeometry x="3264.4" y="130" width="465.6" height="210" as="geometry" />
        </mxCell>
        <mxCell id="nVltp_dW7A7kv0RR8O9B-62" value="consumer" style="rounded=1;whiteSpace=wrap;html=1;absoluteArcSize=1;arcSize=14;strokeWidth=2;sketch=1;hachureGap=4;jiggle=2;curveFitting=1;fontFamily=Architects Daughter;fontSource=https%3A%2F%2Ffonts.googleapis.com%2Fcss%3Ffamily%3DArchitects%2BDaughter;fontSize=20;fillColor=#fff2cc;strokeColor=#d6b656;" vertex="1" parent="1">
          <mxGeometry x="3284.4" y="179.5" width="145.6" height="115.5" as="geometry" />
        </mxCell>
        <mxCell id="nVltp_dW7A7kv0RR8O9B-75" style="edgeStyle=orthogonalEdgeStyle;rounded=0;orthogonalLoop=1;jettySize=auto;html=1;exitX=1;exitY=0.5;exitDx=0;exitDy=0;" edge="1" parent="1" source="nVltp_dW7A7kv0RR8O9B-65" target="nVltp_dW7A7kv0RR8O9B-62">
          <mxGeometry relative="1" as="geometry" />
        </mxCell>
        <mxCell id="nVltp_dW7A7kv0RR8O9B-65" value="Message broker" style="rounded=1;whiteSpace=wrap;html=1;absoluteArcSize=1;arcSize=14;strokeWidth=2;sketch=1;hachureGap=4;jiggle=2;curveFitting=1;fontFamily=Architects Daughter;fontSource=https%3A%2F%2Ffonts.googleapis.com%2Fcss%3Ffamily%3DArchitects%2BDaughter;fontSize=20;fillColor=#f8cecc;strokeColor=#b85450;" vertex="1" parent="1">
          <mxGeometry x="2880" y="179.5" width="154.4" height="115.5" as="geometry" />
        </mxCell>
        <mxCell id="nVltp_dW7A7kv0RR8O9B-66" value="get message" style="text;html=1;align=center;verticalAlign=middle;resizable=0;points=[];autosize=1;strokeColor=none;fillColor=none;fontSize=19;" vertex="1" parent="1">
          <mxGeometry x="3070" y="190" width="130" height="40" as="geometry" />
        </mxCell>
        <mxCell id="nVltp_dW7A7kv0RR8O9B-68" value="save into DB" style="text;html=1;align=center;verticalAlign=middle;resizable=0;points=[];autosize=1;strokeColor=none;fillColor=none;fontSize=19;" vertex="1" parent="1">
          <mxGeometry x="3432.2" y="195" width="130" height="40" as="geometry" />
        </mxCell>
        <mxCell id="nVltp_dW7A7kv0RR8O9B-73" value="Database" style="strokeWidth=2;html=1;shape=mxgraph.flowchart.database;whiteSpace=wrap;sketch=1;hachureGap=4;jiggle=2;curveFitting=1;fontFamily=Architects Daughter;fontSource=https%3A%2F%2Ffonts.googleapis.com%2Fcss%3Ffamily%3DArchitects%2BDaughter;fontSize=20;fillColor=#dae8fc;strokeColor=#6c8ebf;" vertex="1" parent="1">
          <mxGeometry x="3580" y="176.5" width="120" height="120" as="geometry" />
        </mxCell>
        <mxCell id="nVltp_dW7A7kv0RR8O9B-74" style="edgeStyle=orthogonalEdgeStyle;rounded=0;orthogonalLoop=1;jettySize=auto;html=1;exitX=1;exitY=0.5;exitDx=0;exitDy=0;entryX=0;entryY=0.5;entryDx=0;entryDy=0;entryPerimeter=0;" edge="1" parent="1" source="nVltp_dW7A7kv0RR8O9B-62" target="nVltp_dW7A7kv0RR8O9B-73">
          <mxGeometry relative="1" as="geometry" />
        </mxCell>
        <mxCell id="nVltp_dW7A7kv0RR8O9B-76" value="" style="rounded=0;whiteSpace=wrap;html=1;fillColor=none;dashed=1;dashPattern=8 8;" vertex="1" parent="1">
          <mxGeometry x="3264.4" y="495" width="465.6" height="210" as="geometry" />
        </mxCell>
        <mxCell id="nVltp_dW7A7kv0RR8O9B-93" style="edgeStyle=orthogonalEdgeStyle;rounded=0;orthogonalLoop=1;jettySize=auto;html=1;exitX=0;exitY=0.75;exitDx=0;exitDy=0;entryX=1;entryY=0.75;entryDx=0;entryDy=0;" edge="1" parent="1" source="nVltp_dW7A7kv0RR8O9B-77" target="nVltp_dW7A7kv0RR8O9B-79">
          <mxGeometry relative="1" as="geometry" />
        </mxCell>
        <mxCell id="nVltp_dW7A7kv0RR8O9B-77" value="consumer" style="rounded=1;whiteSpace=wrap;html=1;absoluteArcSize=1;arcSize=14;strokeWidth=2;sketch=1;hachureGap=4;jiggle=2;curveFitting=1;fontFamily=Architects Daughter;fontSource=https%3A%2F%2Ffonts.googleapis.com%2Fcss%3Ffamily%3DArchitects%2BDaughter;fontSize=20;fillColor=#fff2cc;strokeColor=#d6b656;" vertex="1" parent="1">
          <mxGeometry x="3284.4" y="544.5" width="145.6" height="115.5" as="geometry" />
        </mxCell>
        <mxCell id="nVltp_dW7A7kv0RR8O9B-92" style="edgeStyle=orthogonalEdgeStyle;rounded=0;orthogonalLoop=1;jettySize=auto;html=1;exitX=1;exitY=0.25;exitDx=0;exitDy=0;entryX=0;entryY=0.25;entryDx=0;entryDy=0;" edge="1" parent="1" source="nVltp_dW7A7kv0RR8O9B-79" target="nVltp_dW7A7kv0RR8O9B-77">
          <mxGeometry relative="1" as="geometry" />
        </mxCell>
        <mxCell id="nVltp_dW7A7kv0RR8O9B-79" value="Message broker" style="rounded=1;whiteSpace=wrap;html=1;absoluteArcSize=1;arcSize=14;strokeWidth=2;sketch=1;hachureGap=4;jiggle=2;curveFitting=1;fontFamily=Architects Daughter;fontSource=https%3A%2F%2Ffonts.googleapis.com%2Fcss%3Ffamily%3DArchitects%2BDaughter;fontSize=20;fillColor=#f8cecc;strokeColor=#b85450;" vertex="1" parent="1">
          <mxGeometry x="2880" y="544.5" width="154.4" height="115.5" as="geometry" />
        </mxCell>
        <mxCell id="nVltp_dW7A7kv0RR8O9B-80" value="(1) get message" style="text;html=1;align=center;verticalAlign=middle;resizable=0;points=[];autosize=1;strokeColor=none;fillColor=none;fontSize=19;" vertex="1" parent="1">
          <mxGeometry x="3070" y="532.5" width="160" height="40" as="geometry" />
        </mxCell>
        <mxCell id="nVltp_dW7A7kv0RR8O9B-81" value="(3) save into DB" style="text;html=1;align=center;verticalAlign=middle;resizable=0;points=[];autosize=1;strokeColor=none;fillColor=none;fontSize=19;" vertex="1" parent="1">
          <mxGeometry x="3420" y="558" width="160" height="40" as="geometry" />
        </mxCell>
        <mxCell id="nVltp_dW7A7kv0RR8O9B-82" value="Database" style="strokeWidth=2;html=1;shape=mxgraph.flowchart.database;whiteSpace=wrap;sketch=1;hachureGap=4;jiggle=2;curveFitting=1;fontFamily=Architects Daughter;fontSource=https%3A%2F%2Ffonts.googleapis.com%2Fcss%3Ffamily%3DArchitects%2BDaughter;fontSize=20;fillColor=#dae8fc;strokeColor=#6c8ebf;" vertex="1" parent="1">
          <mxGeometry x="3580" y="541.5" width="120" height="120" as="geometry" />
        </mxCell>
        <mxCell id="nVltp_dW7A7kv0RR8O9B-83" style="edgeStyle=orthogonalEdgeStyle;rounded=0;orthogonalLoop=1;jettySize=auto;html=1;exitX=1;exitY=0.5;exitDx=0;exitDy=0;entryX=0;entryY=0.5;entryDx=0;entryDy=0;entryPerimeter=0;" edge="1" parent="1" source="nVltp_dW7A7kv0RR8O9B-77" target="nVltp_dW7A7kv0RR8O9B-82">
          <mxGeometry relative="1" as="geometry" />
        </mxCell>
        <mxCell id="nVltp_dW7A7kv0RR8O9B-84" value="" style="rounded=0;whiteSpace=wrap;html=1;fillColor=none;dashed=1;dashPattern=8 8;" vertex="1" parent="1">
          <mxGeometry x="3264.4" y="770" width="465.6" height="210" as="geometry" />
        </mxCell>
        <mxCell id="nVltp_dW7A7kv0RR8O9B-99" style="edgeStyle=orthogonalEdgeStyle;rounded=0;orthogonalLoop=1;jettySize=auto;html=1;exitX=0;exitY=0.75;exitDx=0;exitDy=0;entryX=1;entryY=0.75;entryDx=0;entryDy=0;" edge="1" parent="1" source="nVltp_dW7A7kv0RR8O9B-85" target="nVltp_dW7A7kv0RR8O9B-87">
          <mxGeometry relative="1" as="geometry" />
        </mxCell>
        <mxCell id="nVltp_dW7A7kv0RR8O9B-85" value="consumer" style="rounded=1;whiteSpace=wrap;html=1;absoluteArcSize=1;arcSize=14;strokeWidth=2;sketch=1;hachureGap=4;jiggle=2;curveFitting=1;fontFamily=Architects Daughter;fontSource=https%3A%2F%2Ffonts.googleapis.com%2Fcss%3Ffamily%3DArchitects%2BDaughter;fontSize=20;fillColor=#fff2cc;strokeColor=#d6b656;" vertex="1" parent="1">
          <mxGeometry x="3284.4" y="819.5" width="145.6" height="115.5" as="geometry" />
        </mxCell>
        <mxCell id="nVltp_dW7A7kv0RR8O9B-98" style="edgeStyle=orthogonalEdgeStyle;rounded=0;orthogonalLoop=1;jettySize=auto;html=1;exitX=1;exitY=0.25;exitDx=0;exitDy=0;entryX=0;entryY=0.25;entryDx=0;entryDy=0;" edge="1" parent="1" source="nVltp_dW7A7kv0RR8O9B-87" target="nVltp_dW7A7kv0RR8O9B-85">
          <mxGeometry relative="1" as="geometry" />
        </mxCell>
        <mxCell id="nVltp_dW7A7kv0RR8O9B-100" style="edgeStyle=orthogonalEdgeStyle;rounded=0;orthogonalLoop=1;jettySize=auto;html=1;exitX=1;exitY=0.5;exitDx=0;exitDy=0;" edge="1" parent="1" source="nVltp_dW7A7kv0RR8O9B-87" target="nVltp_dW7A7kv0RR8O9B-85">
          <mxGeometry relative="1" as="geometry" />
        </mxCell>
        <mxCell id="nVltp_dW7A7kv0RR8O9B-87" value="Message broker" style="rounded=1;whiteSpace=wrap;html=1;absoluteArcSize=1;arcSize=14;strokeWidth=2;sketch=1;hachureGap=4;jiggle=2;curveFitting=1;fontFamily=Architects Daughter;fontSource=https%3A%2F%2Ffonts.googleapis.com%2Fcss%3Ffamily%3DArchitects%2BDaughter;fontSize=20;fillColor=#f8cecc;strokeColor=#b85450;" vertex="1" parent="1">
          <mxGeometry x="2880" y="819.5" width="154.4" height="115.5" as="geometry" />
        </mxCell>
        <mxCell id="nVltp_dW7A7kv0RR8O9B-90" value="Database" style="strokeWidth=2;html=1;shape=mxgraph.flowchart.database;whiteSpace=wrap;sketch=1;hachureGap=4;jiggle=2;curveFitting=1;fontFamily=Architects Daughter;fontSource=https%3A%2F%2Ffonts.googleapis.com%2Fcss%3Ffamily%3DArchitects%2BDaughter;fontSize=20;fillColor=#dae8fc;strokeColor=#6c8ebf;" vertex="1" parent="1">
          <mxGeometry x="3580" y="816.5" width="120" height="120" as="geometry" />
        </mxCell>
        <mxCell id="nVltp_dW7A7kv0RR8O9B-94" value="(2) ack" style="text;html=1;align=center;verticalAlign=middle;resizable=0;points=[];autosize=1;strokeColor=none;fillColor=none;fontSize=19;" vertex="1" parent="1">
          <mxGeometry x="3095" y="637.5" width="80" height="40" as="geometry" />
        </mxCell>
        <mxCell id="nVltp_dW7A7kv0RR8O9B-95" value="" style="shape=cross;whiteSpace=wrap;html=1;rotation=-45;fillColor=#f8cecc;strokeColor=#b85450;" vertex="1" parent="1">
          <mxGeometry x="3481" y="591" width="30" height="30" as="geometry" />
        </mxCell>
        <mxCell id="nVltp_dW7A7kv0RR8O9B-96" value="Lost message" style="text;html=1;align=center;verticalAlign=middle;resizable=0;points=[];autosize=1;strokeColor=none;fillColor=none;fontSize=19;" vertex="1" parent="1">
          <mxGeometry x="3420" y="440" width="140" height="40" as="geometry" />
        </mxCell>
        <mxCell id="nVltp_dW7A7kv0RR8O9B-97" value="Possible duplicate" style="text;html=1;align=center;verticalAlign=middle;resizable=0;points=[];autosize=1;strokeColor=none;fillColor=none;fontSize=19;" vertex="1" parent="1">
          <mxGeometry x="3412.2" y="730" width="180" height="40" as="geometry" />
        </mxCell>
        <mxCell id="nVltp_dW7A7kv0RR8O9B-101" style="edgeStyle=orthogonalEdgeStyle;rounded=0;orthogonalLoop=1;jettySize=auto;html=1;exitX=1;exitY=0.25;exitDx=0;exitDy=0;entryX=0;entryY=0.15;entryDx=0;entryDy=0;entryPerimeter=0;" edge="1" parent="1" source="nVltp_dW7A7kv0RR8O9B-85" target="nVltp_dW7A7kv0RR8O9B-90">
          <mxGeometry relative="1" as="geometry" />
        </mxCell>
        <mxCell id="nVltp_dW7A7kv0RR8O9B-102" style="edgeStyle=orthogonalEdgeStyle;rounded=0;orthogonalLoop=1;jettySize=auto;html=1;exitX=1;exitY=0.75;exitDx=0;exitDy=0;entryX=0;entryY=0.85;entryDx=0;entryDy=0;entryPerimeter=0;" edge="1" parent="1" source="nVltp_dW7A7kv0RR8O9B-85" target="nVltp_dW7A7kv0RR8O9B-90">
          <mxGeometry relative="1" as="geometry" />
        </mxCell>
        <mxCell id="nVltp_dW7A7kv0RR8O9B-103" value="(2) save into DB" style="text;html=1;align=center;verticalAlign=middle;resizable=0;points=[];autosize=1;strokeColor=none;fillColor=none;fontSize=19;" vertex="1" parent="1">
          <mxGeometry x="3420" y="790" width="160" height="40" as="geometry" />
        </mxCell>
        <mxCell id="nVltp_dW7A7kv0RR8O9B-104" value="(4) save into DB" style="text;html=1;align=center;verticalAlign=middle;resizable=0;points=[];autosize=1;strokeColor=none;fillColor=none;fontSize=19;" vertex="1" parent="1">
          <mxGeometry x="3430" y="933" width="160" height="40" as="geometry" />
        </mxCell>
        <mxCell id="nVltp_dW7A7kv0RR8O9B-105" value="(5) ack" style="text;html=1;align=center;verticalAlign=middle;resizable=0;points=[];autosize=1;strokeColor=none;fillColor=none;fontSize=19;" vertex="1" parent="1">
          <mxGeometry x="3095" y="923" width="80" height="40" as="geometry" />
        </mxCell>
        <mxCell id="nVltp_dW7A7kv0RR8O9B-106" value="(1) get message" style="text;html=1;align=center;verticalAlign=middle;resizable=0;points=[];autosize=1;strokeColor=none;fillColor=none;fontSize=19;" vertex="1" parent="1">
          <mxGeometry x="3060" y="800" width="160" height="40" as="geometry" />
        </mxCell>
        <mxCell id="nVltp_dW7A7kv0RR8O9B-107" value="(3) get message" style="text;html=1;align=center;verticalAlign=middle;resizable=0;points=[];autosize=1;strokeColor=none;fillColor=none;fontSize=19;" vertex="1" parent="1">
          <mxGeometry x="3070" y="840" width="160" height="40" as="geometry" />
        </mxCell>
        <mxCell id="nVltp_dW7A7kv0RR8O9B-108" value="" style="shape=cross;whiteSpace=wrap;html=1;rotation=-45;fillColor=#f8cecc;strokeColor=#b85450;" vertex="1" parent="1">
          <mxGeometry x="3488" y="831" width="30" height="30" as="geometry" />
        </mxCell>
        <mxCell id="nVltp_dW7A7kv0RR8O9B-109" style="edgeStyle=orthogonalEdgeStyle;rounded=0;orthogonalLoop=1;jettySize=auto;html=1;exitX=1;exitY=0.5;exitDx=0;exitDy=0;entryX=0;entryY=0.5;entryDx=0;entryDy=0;" edge="1" parent="1" source="nVltp_dW7A7kv0RR8O9B-110" target="nVltp_dW7A7kv0RR8O9B-111">
          <mxGeometry relative="1" as="geometry" />
        </mxCell>
        <mxCell id="nVltp_dW7A7kv0RR8O9B-110" value="producer" style="rounded=1;whiteSpace=wrap;html=1;absoluteArcSize=1;arcSize=14;strokeWidth=2;sketch=1;hachureGap=4;jiggle=2;curveFitting=1;fontFamily=Architects Daughter;fontSource=https%3A%2F%2Ffonts.googleapis.com%2Fcss%3Ffamily%3DArchitects%2BDaughter;fontSize=20;fillColor=#f8cecc;strokeColor=#b85450;" vertex="1" parent="1">
          <mxGeometry x="210" y="1550" width="100" height="73" as="geometry" />
        </mxCell>
        <mxCell id="nVltp_dW7A7kv0RR8O9B-114" value="" style="edgeStyle=orthogonalEdgeStyle;rounded=0;orthogonalLoop=1;jettySize=auto;html=1;" edge="1" parent="1" source="nVltp_dW7A7kv0RR8O9B-111" target="nVltp_dW7A7kv0RR8O9B-113">
          <mxGeometry relative="1" as="geometry" />
        </mxCell>
        <mxCell id="nVltp_dW7A7kv0RR8O9B-111" value="consumer" style="rounded=1;whiteSpace=wrap;html=1;absoluteArcSize=1;arcSize=14;strokeWidth=2;sketch=1;hachureGap=4;jiggle=2;curveFitting=1;fontFamily=Architects Daughter;fontSource=https%3A%2F%2Ffonts.googleapis.com%2Fcss%3Ffamily%3DArchitects%2BDaughter;fontSize=20;fillColor=#d5e8d4;strokeColor=#82b366;" vertex="1" parent="1">
          <mxGeometry x="440" y="1550" width="100" height="73" as="geometry" />
        </mxCell>
        <mxCell id="nVltp_dW7A7kv0RR8O9B-112" value="message" style="shape=note;whiteSpace=wrap;html=1;backgroundOutline=1;darkOpacity=0.05;sketch=1;curveFitting=1;jiggle=2;fillColor=#e1d5e7;strokeColor=#9673a6;size=20;" vertex="1" parent="1">
          <mxGeometry x="347.20000000000005" y="1550" width="45.6" height="57" as="geometry" />
        </mxCell>
        <mxCell id="nVltp_dW7A7kv0RR8O9B-113" value="logic" style="rounded=1;whiteSpace=wrap;html=1;absoluteArcSize=1;arcSize=14;strokeWidth=2;sketch=1;hachureGap=4;jiggle=2;curveFitting=1;fontFamily=Architects Daughter;fontSource=https%3A%2F%2Ffonts.googleapis.com%2Fcss%3Ffamily%3DArchitects%2BDaughter;fontSize=20;fillColor=#fff2cc;strokeColor=#d6b656;" vertex="1" parent="1">
          <mxGeometry x="690" y="1550" width="100" height="73" as="geometry" />
        </mxCell>
        <mxCell id="nVltp_dW7A7kv0RR8O9B-115" value="message" style="shape=note;whiteSpace=wrap;html=1;backgroundOutline=1;darkOpacity=0.05;sketch=1;curveFitting=1;jiggle=2;fillColor=#e1d5e7;strokeColor=#9673a6;size=20;" vertex="1" parent="1">
          <mxGeometry x="590" y="1558" width="45.6" height="57" as="geometry" />
        </mxCell>
        <mxCell id="nVltp_dW7A7kv0RR8O9B-125" style="edgeStyle=orthogonalEdgeStyle;rounded=0;orthogonalLoop=1;jettySize=auto;html=1;exitX=1;exitY=0.5;exitDx=0;exitDy=0;entryX=0;entryY=0.5;entryDx=0;entryDy=0;" edge="1" parent="1" source="nVltp_dW7A7kv0RR8O9B-117" target="nVltp_dW7A7kv0RR8O9B-123">
          <mxGeometry relative="1" as="geometry" />
        </mxCell>
        <mxCell id="nVltp_dW7A7kv0RR8O9B-117" value="producer" style="rounded=1;whiteSpace=wrap;html=1;absoluteArcSize=1;arcSize=14;strokeWidth=2;sketch=1;hachureGap=4;jiggle=2;curveFitting=1;fontFamily=Architects Daughter;fontSource=https%3A%2F%2Ffonts.googleapis.com%2Fcss%3Ffamily%3DArchitects%2BDaughter;fontSize=20;fillColor=#f8cecc;strokeColor=#b85450;" vertex="1" parent="1">
          <mxGeometry x="94.66" y="1821.5" width="150.68" height="110" as="geometry" />
        </mxCell>
        <mxCell id="nVltp_dW7A7kv0RR8O9B-126" style="edgeStyle=orthogonalEdgeStyle;rounded=0;orthogonalLoop=1;jettySize=auto;html=1;exitX=1;exitY=0.25;exitDx=0;exitDy=0;entryX=0;entryY=0.25;entryDx=0;entryDy=0;" edge="1" parent="1" source="nVltp_dW7A7kv0RR8O9B-123" target="nVltp_dW7A7kv0RR8O9B-124">
          <mxGeometry relative="1" as="geometry" />
        </mxCell>
        <mxCell id="nVltp_dW7A7kv0RR8O9B-127" style="edgeStyle=orthogonalEdgeStyle;rounded=0;orthogonalLoop=1;jettySize=auto;html=1;exitX=1;exitY=0.75;exitDx=0;exitDy=0;entryX=0;entryY=0.75;entryDx=0;entryDy=0;" edge="1" parent="1" source="nVltp_dW7A7kv0RR8O9B-123" target="nVltp_dW7A7kv0RR8O9B-124">
          <mxGeometry relative="1" as="geometry" />
        </mxCell>
        <mxCell id="nVltp_dW7A7kv0RR8O9B-123" value="consumer" style="rounded=1;whiteSpace=wrap;html=1;absoluteArcSize=1;arcSize=14;strokeWidth=2;sketch=1;hachureGap=4;jiggle=2;curveFitting=1;fontFamily=Architects Daughter;fontSource=https%3A%2F%2Ffonts.googleapis.com%2Fcss%3Ffamily%3DArchitects%2BDaughter;fontSize=20;fillColor=#d5e8d4;strokeColor=#82b366;" vertex="1" parent="1">
          <mxGeometry x="392.8" y="1821.5" width="150.68" height="110" as="geometry" />
        </mxCell>
        <mxCell id="nVltp_dW7A7kv0RR8O9B-124" value="logic" style="rounded=1;whiteSpace=wrap;html=1;absoluteArcSize=1;arcSize=14;strokeWidth=2;sketch=1;hachureGap=4;jiggle=2;curveFitting=1;fontFamily=Architects Daughter;fontSource=https%3A%2F%2Ffonts.googleapis.com%2Fcss%3Ffamily%3DArchitects%2BDaughter;fontSize=20;fillColor=#fff2cc;strokeColor=#d6b656;" vertex="1" parent="1">
          <mxGeometry x="689.9999999999999" y="1821.5" width="150.68" height="110" as="geometry" />
        </mxCell>
        <mxCell id="nVltp_dW7A7kv0RR8O9B-128" value="message" style="shape=note;whiteSpace=wrap;html=1;backgroundOutline=1;darkOpacity=0.05;sketch=1;curveFitting=1;jiggle=2;fillColor=#e1d5e7;strokeColor=#9673a6;size=20;" vertex="1" parent="1">
          <mxGeometry x="287.20000000000005" y="1830" width="45.6" height="57" as="geometry" />
        </mxCell>
        <mxCell id="nVltp_dW7A7kv0RR8O9B-129" value="message" style="shape=note;whiteSpace=wrap;html=1;backgroundOutline=1;darkOpacity=0.05;sketch=1;curveFitting=1;jiggle=2;fillColor=#e1d5e7;strokeColor=#9673a6;size=20;" vertex="1" parent="1">
          <mxGeometry x="570" y="1810" width="45.6" height="57" as="geometry" />
        </mxCell>
        <mxCell id="nVltp_dW7A7kv0RR8O9B-130" value="message" style="shape=note;whiteSpace=wrap;html=1;backgroundOutline=1;darkOpacity=0.05;sketch=1;curveFitting=1;jiggle=2;fillColor=#e1d5e7;strokeColor=#9673a6;size=20;" vertex="1" parent="1">
          <mxGeometry x="570" y="1887" width="45.6" height="57" as="geometry" />
        </mxCell>
        <mxCell id="nVltp_dW7A7kv0RR8O9B-131" value="" style="shape=cross;whiteSpace=wrap;html=1;rotation=-45;fillColor=#f8cecc;strokeColor=#b85450;" vertex="1" parent="1">
          <mxGeometry x="635" y="1835" width="30" height="30" as="geometry" />
        </mxCell>
      </root>
    </mxGraphModel>
  </diagram>
</mxfile>
